/* XPM */
static char * bitcoin32_xpm[] = {
"32 32 93 2",
"  	c None",
". 	c #BC262C",
"+ 	c #BE262C",
"@ 	c #C1272D",
"# 	c #BD262C",
"$ 	c #BB262B",
"% 	c #BF262C",
"& 	c #C0272D",
"* 	c #D4A7A7",
"= 	c #DAA7A8",
"- 	c #BB252B",
"; 	c #F5F1F1",
"> 	c #F7F1F1",
", 	c #D2A7A7",
"' 	c #FFFFFF",
") 	c #D3A7A7",
"! 	c #DDC9CA",
"~ 	c #D18D8E",
"{ 	c #BC262B",
"] 	c #F4F1F1",
"^ 	c #BC292F",
"/ 	c #E0CACA",
"( 	c #BA252B",
"_ 	c #E6D0D1",
": 	c #F6F1F1",
"< 	c #F8F1F1",
"[ 	c #E5CCCC",
"} 	c #B8252A",
"| 	c #DEB7B7",
"1 	c #DBB2B3",
"2 	c #D28D8E",
"3 	c #D38D8E",
"4 	c #D28B8C",
"5 	c #CF7D7E",
"6 	c #C14F52",
"7 	c #C3696B",
"8 	c #D7A7A8",
"9 	c #D29A9B",
"0 	c #C66365",
"a 	c #E6D0D0",
"b 	c #F8F4F4",
"c 	c #BC5355",
"d 	c #F2EAEA",
"e 	c #FCF8F8",
"f 	c #EAD0D1",
"g 	c #D7B4B5",
"h 	c #F2F2F2",
"i 	c #F2E9E9",
"j 	c #C65153",
"k 	c #ECDBDC",
"l 	c #E9D5D6",
"m 	c #F7F3F3",
"n 	c #FCFCFC",
"o 	c #C97172",
"p 	c #F8F4F5",
"q 	c #F7EFEF",
"r 	c #C15053",
"s 	c #F5E9E9",
"t 	c #ECE5E5",
"u 	c #EBDCDC",
"v 	c #E1C3C3",
"w 	c #B9252B",
"x 	c #D8A3A4",
"y 	c #F9F8F8",
"z 	c #F3EEEF",
"A 	c #F4EEEE",
"B 	c #E6D5D5",
"C 	c #FEFEFE",
"D 	c #C1292E",
"E 	c #CA7375",
"F 	c #C9696B",
"G 	c #B52F33",
"H 	c #D4AAAA",
"I 	c #EAD9D9",
"J 	c #E3BDBE",
"K 	c #D29798",
"L 	c #C76F70",
"M 	c #D79B9C",
"N 	c #CA7C7E",
"O 	c #E2BDBE",
"P 	c #EBDBDB",
"Q 	c #CE9E9E",
"R 	c #B7252A",
"S 	c #C79090",
"T 	c #D08D8E",
"U 	c #BF272D",
"V 	c #DFB9B9",
"W 	c #C69697",
"X 	c #E1BDBE",
"Y 	c #C6696B",
"Z 	c #CA6A6B",
"` 	c #B32329",
" .	c #B8252B",
"                        . . + @ @ # + $                         ",
"                  @ + @ @ @ @ @ @ @ @ @ @ % &                   ",
"              $ @ @ @ @ @ @ @ . @ @ @ @ @ @ @ @ .               ",
"            + @ @ @ @ @ @ @ @ * = @ @ @ @ @ @ @ @ -             ",
"          @ @ @ @ @ @ @ @ @ . ; > + @ @ @ @ @ @ @ @ @           ",
"        @ @ @ @ @ @ @ @ @ @ , ' ' ) @ @ @ @ @ @ @ @ @ @         ",
"      # @ @ @ @ @ @ @ ! ~ { ; ' ' ] ^ ~ / @ @ @ @ @ @ @ #       ",
"    ( @ @ @ @ @ @ @ @ _ ' : ' ' ' ' < ' [ @ @ @ @ @ @ @ @ }     ",
"    @ @ @ @ @ @ @ @ @ | ' ' ' ' ' ' ' ' 1 @ @ @ @ @ @ @ @ @     ",
"  @ @ @ @ @ @ @ @ @ @ 2 ' ' ' ' ' ' ' ' 3 @ @ @ @ @ @ @ @ @ .   ",
"  # @ @ @ @ @ @ 4 5 @ 6 ' ' ' ' ' ' ' ' { @ 5 7 @ @ @ @ @ @ +   ",
"  @ @ @ 8 9 0 @ a b c @ ; ' ' ' ' ' ' d @ 5 e f @ @ @ @ @ @ @   ",
"$ @ @ @ g ' ' h ' ' i j k ' ' ' ' ' ' l c m ' ' n ' ' ' ' ' ' ' ",
"# @ @ @ o ' ' ' ' ' ' < e ' ' ' ' ' ' p ; ' ' ' ' ' ' ' ' ' ' ' ",
"# @ @ @ @ q ' ' ' ' ' ' ' ' ' ' ' ' ' ' ' ' ' ' ' ' ' ' ' ' ' ' ",
"@ @ @ @ r s ' ' ' ' ' ' ' ' ' ' ' ' ' ' ' ' ' ' ' ' ' ' ' ' ' ' ",
"@ @ @ j t ' ' ' ' ' ' ' ' ' ' ' ' ' ' ' ' ' ' ' ' ' ' ' ' ' ' ' ",
"# @ @ @ j u ' ' ' ' ' ' ' ' ' ' ' ' ' ' ' ' ' ' ' ' ' ' ' ' ' ' ",
"+ @ @ @ @ @ v ' ' ' ' ' ' ' ' ' ' ' ' ' ' ' ' ' ' ' ' ' ' ' ' ' ",
"w @ @ @ @ @ @ x y ' ' ' ' ' ' ' ' ' ' ' ' ' ' ' ' ' ' ' ' ' ' ' ",
"  @ @ @ @ @ @ @ 5 z ' ' ' ' ' ' ' ' ' ' ' ' A B B B B B B B B   ",
"  { @ @ @ @ @ @ @ j ' ' ' ' ' ' ' ' ' ' ' C j @ @ @ @ @ @ @ D   ",
"  @ @ @ @ @ @ @ @ E ' ' ' ' ' ' ' ' ' ' ' ' F @ @ @ @ @ @ @ G   ",
"    @ @ @ @ @ @ @ H I J K L @ 9 M @ N 9 O P Q @ @ @ @ @ @ .     ",
"    R @ @ @ @ @ @ @ @ @ @ @ @ S T @ @ @ @ @ @ @ @ @ @ @ @ U     ",
"      @ @ @ @ @ @ @ @ @ @ @ @ V W @ @ @ @ @ @ @ @ @ @ @ @       ",
"        @ @ @ @ @ @ @ @ @ @ @ J J @ @ @ @ @ @ @ @ @ @ U         ",
"          @ @ @ @ @ @ @ @ @ @ J J @ @ @ @ @ @ @ @ @ U           ",
"            @ @ @ @ @ @ @ @ @ X J @ @ @ @ @ @ @ @ &             ",
"              ( U @ @ @ @ @ @ Y Z @ @ @ @ @ @ { @               ",
"                  + # @ @ @ @ @ @ @ @ @ @ @ `                   ",
"                        ( @  .@ @ R @ -                         "};
