/* XPM */
static char * bitcoin64_xpm[] = {
"64 64 198 2",
"  	c None",
". 	c #BA252B",
"+ 	c #B6242A",
"@ 	c #B22329",
"# 	c #C0272D",
"$ 	c #C1272D",
"% 	c #B02328",
"& 	c #BC262C",
"* 	c #B42429",
"= 	c #B7252A",
"- 	c #B9252B",
"; 	c #BD262C",
"> 	c #B32329",
", 	c #B8252B",
"' 	c #C45B5D",
") 	c #C25053",
"! 	c #BC262B",
"~ 	c #DEC2C3",
"{ 	c #DBBDBD",
"] 	c #BF262C",
"^ 	c #AB2127",
"/ 	c #C45C5E",
"( 	c #FAFAFA",
"_ 	c #F8F8F8",
": 	c #C05053",
"< 	c #B8252A",
"[ 	c #AE2228",
"} 	c #E1C5C5",
"| 	c #FFFFFF",
"1 	c #DABDBD",
"2 	c #B32429",
"3 	c #FBFBFB",
"4 	c #F9F9F9",
"5 	c #C15255",
"6 	c #AD2227",
"7 	c #E2C8C8",
"8 	c #DDC0C1",
"9 	c #C45D5F",
"0 	c #FCFCFC",
"a 	c #E4D0D0",
"b 	c #D09C9D",
"c 	c #E2C8C9",
"d 	c #E4CACB",
"e 	c #D2A4A5",
"f 	c #E4CECE",
"g 	c #DCBFC0",
"h 	c #EAE2E2",
"i 	c #CC8C8D",
"j 	c #C56466",
"k 	c #C46567",
"l 	c #CD8C8D",
"m 	c #EBE3E3",
"n 	c #DEBDBD",
"o 	c #D1A2A3",
"p 	c #E8DBDB",
"q 	c #F2EAEA",
"r 	c #F1E9E9",
"s 	c #E4D5D6",
"t 	c #CC9394",
"u 	c #C97B7C",
"v 	c #BF6163",
"w 	c #BF272D",
"x 	c #B12329",
"y 	c #ECE3E3",
"z 	c #EEE1E1",
"A 	c #B5242A",
"B 	c #E0CBCB",
"C 	c #DDC1C1",
"D 	c #AF2228",
"E 	c #D9B1B2",
"F 	c #D0A1A2",
"G 	c #C3696A",
"H 	c #CF8D8E",
"I 	c #C67677",
"J 	c #BC2B30",
"K 	c #C25658",
"L 	c #E4D4D4",
"M 	c #E9D0D0",
"N 	c #B9393D",
"O 	c #FDFDFD",
"P 	c #BE262C",
"Q 	c #DED0D1",
"R 	c #E0C4C4",
"S 	c #B7242A",
"T 	c #C5686A",
"U 	c #C56062",
"V 	c #E1C6C6",
"W 	c #EFEDED",
"X 	c #ECE2E2",
"Y 	c #C14E51",
"Z 	c #D6B1B1",
"` 	c #ECE1E1",
" .	c #DEC0C1",
"..	c #CE9898",
"+.	c #BF5C5E",
"@.	c #CAA9AA",
"#.	c #E8D7D7",
"$.	c #E0C9C9",
"%.	c #EAD0D0",
"&.	c #DEB9B9",
"*.	c #BB262B",
"=.	c #9F1F24",
"-.	c #C5696B",
";.	c #F3F2F2",
">.	c #F1E1E1",
",.	c #D3A7A7",
"'.	c #E0BCBC",
").	c #D6ADAE",
"!.	c #EDE1E1",
"~.	c #E8E1E1",
"{.	c #E2E1E1",
"].	c #E1E1E1",
"^.	c #EBEBEB",
"/.	c #F7F7F7",
"(.	c #DAA5A6",
"_.	c #CC9091",
":.	c #D18D8E",
"<.	c #CAA9A9",
"[.	c #D9B8B9",
"}.	c #D3AEAF",
"|.	c #E6D8D8",
"1.	c #DDC6C6",
"2.	c #D7BEBE",
"3.	c #C47173",
"4.	c #F2EEEE",
"5.	c #E1C5C6",
"6.	c #C49192",
"7.	c #CD9394",
"8.	c #F2E9E9",
"9.	c #C77C7D",
"0.	c #F5F0F0",
"a.	c #D4AEAE",
"b.	c #C88889",
"c.	c #FCF8F8",
"d.	c #C36466",
"e.	c #C44B4E",
"f.	c #E3D1D1",
"g.	c #D6B4B4",
"h.	c #CA8D8E",
"i.	c #FAF8F8",
"j.	c #C76E6F",
"k.	c #F0E9E9",
"l.	c #C54E51",
"m.	c #E3D4D4",
"n.	c #D6B5B6",
"o.	c #D7B4B4",
"p.	c #D38D8E",
"q.	c #D3ADAE",
"r.	c #D09798",
"s.	c #EBE1E1",
"t.	c #B94C4F",
"u.	c #C47071",
"v.	c #C15457",
"w.	c #E0C3C4",
"x.	c #ECE9E9",
"y.	c #F5F5F5",
"z.	c #F1F1F1",
"A.	c #D5AEAF",
"B.	c #BC272C",
"C.	c #F5F1F1",
"D.	c #F3F3F3",
"E.	c #F0E1E1",
"F.	c #DBBEBE",
"G.	c #D1A4A5",
"H.	c #CE8485",
"I.	c #C54F52",
"J.	c #F7F0F0",
"K.	c #E7DBDB",
"L.	c #BA494C",
"M.	c #CE8C8D",
"N.	c #DBB3B4",
"O.	c #C67375",
"P.	c #DBB3B3",
"Q.	c #CF8C8D",
"R.	c #B94043",
"S.	c #DCCACA",
"T.	c #D4BDBD",
"U.	c #BD5B5D",
"V.	c #CB8C8D",
"W.	c #DFB8B9",
"X.	c #E1CECE",
"Y.	c #C25D5F",
"Z.	c #EFDFDF",
"`.	c #DCC9CA",
" +	c #EFDEDE",
".+	c #BF272C",
"++	c #E3E1E1",
"@+	c #F2F2F2",
"#+	c #EAE1E1",
"$+	c #A52025",
"%+	c #A82126",
"&+	c #B03D40",
"*+	c #A72126",
"=+	c #CC8082",
"-+	c #CA6A6B",
";+	c #E3BDBE",
">+	c #AD2228",
",+	c #AC2227",
"                                                    . + . @ # $ $ # % & * &                                                     ",
"                                            = - $ $ $ $ $ $ $ $ $ $ $ $ $ $ $ $ - =                                             ",
"                                      % & $ $ $ $ $ $ $ $ $ $ $ $ $ $ $ $ $ $ $ $ $ $ & %                                       ",
"                                  % & $ $ $ $ $ $ $ $ $ $ $ $ $ $ $ $ $ $ $ $ $ $ $ $ $ $ ; >                                   ",
"                              % # $ $ $ $ $ $ $ $ $ $ $ $ $ $ $ $ $ $ $ $ $ $ $ $ $ $ $ $ $ $ & ,                               ",
"                            . $ $ $ $ $ $ $ $ $ $ $ $ $ $ $ $ ' ) $ $ $ $ $ $ $ $ $ $ $ $ $ $ $ $ .                             ",
"                          ! $ $ $ $ $ $ $ $ $ $ $ $ $ $ $ $ $ ~ { $ $ $ $ $ $ $ $ $ $ $ $ $ $ $ $ $ ] ^                         ",
"                      , $ $ $ $ $ $ $ $ $ $ $ $ $ $ $ $ $ $ / ( _ : $ $ $ $ $ $ $ $ $ $ $ $ $ $ $ $ $ $ <                       ",
"                    [ $ $ $ $ $ $ $ $ $ $ $ $ $ $ $ $ $ $ $ } | | 1 $ $ $ $ $ $ $ $ $ $ $ $ $ $ $ $ $ $ $ 2                     ",
"                  % $ $ $ $ $ $ $ $ $ $ $ $ $ $ $ $ $ $ $ / 3 | | 4 5 $ $ $ $ $ $ $ $ $ $ $ $ $ $ $ $ $ $ $ &                   ",
"                6 $ $ $ $ $ $ $ $ $ $ $ $ $ $ $ $ $ $ $ $ 7 | | | | 8 $ $ $ $ $ $ $ $ $ $ $ $ $ $ $ $ $ $ $ $ %                 ",
"              + $ $ $ $ $ $ $ $ $ $ $ $ $ $ ! $ $ $ $ $ 9 0 | | | | ( 9 $ $ $ $ $ & $ $ $ $ $ $ $ $ $ $ $ $ $ $ .               ",
"              $ $ $ $ $ $ $ $ $ $ $ $ $ $ $ a b $ $ $ $ c | | | | | | d $ $ $ # e f $ $ $ $ $ $ $ $ $ $ $ $ $ $ $               ",
"            ! $ $ $ $ $ $ $ $ $ $ $ $ $ $ $ g | h i $ j 0 | | | | | | 0 k $ l m | n $ $ $ $ $ $ $ $ $ $ $ $ $ $ $ &             ",
"          , $ $ $ $ $ $ $ $ $ $ $ $ $ $ $ $ o | | | p q | | | | | | | | r s | | | t $ $ $ $ $ $ $ $ $ $ $ $ $ $ $ $ -           ",
"          $ $ $ $ $ $ $ $ $ $ $ $ $ $ $ $ $ u | | | | | | | | | | | | | | | | | | v $ $ $ $ $ $ $ $ $ $ $ $ $ $ $ $ $           ",
"        w $ $ $ $ $ $ $ $ $ $ $ $ $ $ $ $ $ ; | | | | | | | | | | | | | | | | | _ $ $ $ $ $ $ $ $ $ $ $ $ $ $ $ $ $ $ &         ",
"      x $ $ $ $ $ $ $ $ $ $ $ $ $ $ $ $ $ $ $ y | | | | | | | | | | | | | | | | z $ $ $ $ $ $ $ $ $ $ $ $ $ $ $ $ $ $ $ A       ",
"      ; $ $ $ $ $ $ $ $ $ $ $ $ $ $ $ $ $ $ $ B | | | | | | | | | | | | | | | | C $ $ $ $ $ $ $ $ $ $ $ $ $ $ $ $ $ $ $ ;       ",
"    D $ $ $ $ $ $ $ $ $ $ $ $ $ $ $ $ $ $ $ $ E | | | | | | | | | | | | | | | | F $ $ $ $ $ $ $ $ $ $ $ $ $ $ $ $ $ $ $ $       ",
"    & $ $ $ $ $ $ $ $ $ $ $ $ $ $ G ] $ $ $ $ H | | | | | | | | | | | | | | | | I $ $ $ $ J K $ $ $ $ $ $ $ $ $ $ $ $ $ $ =     ",
"    $ $ $ $ $ $ $ $ $ $ $ $ $ $ $ L M $ $ $ $ N | | | | | | | | | | | | | | | O P $ $ $ ; Q R $ $ $ $ $ $ $ $ $ $ $ $ $ $ $     ",
"  S $ $ $ $ $ $ T ; $ $ $ $ $ $ U | | V $ $ $ $ W | | | | | | | | | | | | | | X $ $ $ # a | _ Y $ $ $ $ $ $ $ $ $ $ $ $ $ $ [   ",
"  - $ $ $ $ $ $ Z O `  ...+.$ $ { | | | @.$ $ $ #.| | | | | | | | | | | | | | $.$ $ $ %.| | | &.$ $ $ $ $ $ $ $ $ $ $ # *.@ =.  ",
"  $ $ $ $ $ $ $ -.| | | | | ;.>.O | | | | ,.$ $ '.| | | | | | | | | | | | | | ).$ $ R | | | | | !.~.{.].^./.| | | | | | | | |   ",
"  $ $ $ $ $ $ $ $ r | | | | | | | | | | | | (.$ _.| | | | | | | | | | | | | | :.$ <.| | | | | | | | | | | | | | | | | | | | |   ",
"! $ $ $ $ $ $ $ $ [.| | | | | | | | | | | | O }.|.| | | | | | | | | | | | | | 1.2.| | | | | | | | | | | | | | | | | | | | | | | ",
"+ $ $ $ $ $ $ $ $ 3.| | | | | | | | | | | | | | | | | | | | | | | | | | | | | | | | | | | | | | | | | | | | | | | | | | | | | | ",
". $ $ $ $ $ $ $ $ $ 4.| | | | | | | | | | | | | | | | | | | | | | | | | | | | | | | | | | | | | | | | | | | | | | | | | | | | | ",
"@ $ $ $ $ $ $ $ $ $ 5.| | | | | | | | | | | | | | | | | | | | | | | | | | | | | | | | | | | | | | | | | | | | | | | | | | | | | ",
"# $ $ $ $ $ $ $ $ $ 6.| | | | | | | | | | | | | | | | | | | | | | | | | | | | | | | | | | | | | | | | | | | | | | | | | | | | | ",
"$ $ $ $ $ $ $ $ # 7.8.| | | | | | | | | | | | | | | | | | | | | | | | | | | | | | | | | | | | | | | | | | | | | | | | | | | | | ",
"$ $ $ $ $ $ $ 9.0.| | | | | | | | | | | | | | | | | | | | | | | | | | | | | | | | | | | | | | | | | | | | | | | | | | | | | | | ",
"# $ $ $ $ $ $ $ a.| | | | | | | | | | | | | | | | | | | | | | | | | | | | | | | | | | | | | | | | | | | | | | | | | | | | | | | ",
"% $ $ $ $ $ $ $ $ b.c.| | | | | | | | | | | | | | | | | | | | | | | | | | | | | | | | | | | | | | | | | | | | | | | | | | | | | ",
"& $ $ $ $ $ $ $ $ $ d.r | | | | | | | | | | | | | | | | | | | | | | | | | | | | | | | | | | | | | | | | | | | | | | | | | | | | ",
"2 $ $ $ $ $ $ $ $ $ $ e.f.| | | | | | | | | | | | | | | | | | | | | | | | | | | | | | | | | | | | | | | | | | | | | | | | | | | ",
"& $ $ $ $ $ $ $ $ $ $ $ $ g.| | | | | | | | | | | | | | | | | | | | | | | | | | | | | | | | | | | | | | | | | | | | | | | | | | ",
"  $ $ $ $ $ $ $ $ $ $ $ $ $ h.i.| | | | | | | | | | | | | | | | | | | | | | | | | | | | | | | | | | | | | | | | | | | | | | |   ",
"  $ $ $ $ $ $ $ $ $ $ $ $ $ $ j.k.| | | | | | | | | | | | | | | | | | | | | | | | | | | | | | | | | | | | | | | | | | | | | |   ",
"  . $ $ $ $ $ $ $ $ $ $ $ $ $ $ l.m.| | | | | | | | | | | | | | | | | | | | | | | | | | | | | | | | | | | | | | | | | | | | |   ",
"  2 $ $ $ $ $ $ $ $ $ $ $ $ $ $ $ $ n.| | | | | | | | | | | | | | | | | | | | | | | | | | o.p.p.p.p.p.p.p.p.p.p.p.p.p.p.p.p.q.  ",
"    $ $ $ $ $ $ $ $ $ $ $ $ $ $ $ $ $ r.| | | | | | | | | | | | | | | | | | | | | | | 3 h.$ $ $ $ $ $ $ $ $ $ $ $ $ $ $ $ $     ",
"    ! $ $ $ $ $ $ $ $ $ $ $ $ $ $ $ $ $ _ | | | | | | | | | | | | | | | | | | | | | | s.$ $ $ $ $ $ $ $ $ $ $ $ $ $ $ $ $ t.    ",
"      $ $ $ $ $ $ $ $ $ $ $ $ $ $ $ $ u.| | | | | | | | | | | | | | | | | | | | | | | | v.$ $ $ $ $ $ $ $ $ $ $ $ $ $ $ $       ",
"      P $ $ $ $ $ $ $ $ $ $ $ $ $ $ $ w.| | | | | | | | | x.y.| | z.y.| | | | | | | | | A.$ $ $ $ $ $ $ $ $ $ $ $ $ $ $ B.      ",
"      - $ $ $ $ $ $ $ $ $ $ $ $ $ $ ] C.| | | D.E.F.G.H.. $ I.J.K.; $ L.M.N.$.` ( | | | r $ $ $ $ $ $ $ $ $ $ $ $ $ $ $         ",
"        ; $ $ $ $ $ $ $ $ $ $ $ $ $ O.B P.Q.R.$ $ $ $ $ $ $ $ S.T.$ $ $ $ $ $ $ $ U.V.W.X.Y.$ $ $ $ $ $ $ $ $ $ $ $ $ ;         ",
"          $ $ $ $ $ $ $ $ $ $ $ $ $ $ $ $ $ $ $ $ $ $ $ $ $ $ Z.`.$ $ $ $ $ $ $ $ $ $ $ $ $ $ $ $ $ $ $ $ $ $ $ $ $ $           ",
"          - $ $ $ $ $ $ $ $ $ $ $ $ $ $ $ $ $ $ $ $ $ $ $ $ $ >. +$ $ $ $ $ $ $ $ $ $ $ $ $ $ $ $ $ $ $ $ $ $ $ $ $ <           ",
"            # $ $ $ $ $ $ $ $ $ $ $ $ $ $ $ $ $ $ $ $ $ $ $ $ z >.$ $ $ $ $ $ $ $ $ $ $ $ $ $ $ $ $ $ $ $ $ $ $ $ .+            ",
"              $ $ $ $ $ $ $ $ $ $ $ $ $ $ $ $ $ $ $ $ $ $ $ $ ++>.$ $ $ $ $ $ $ $ $ $ $ $ $ $ $ $ $ $ $ $ $ $ $ $               ",
"              6 $ $ $ $ $ $ $ $ $ $ $ $ $ $ $ $ $ $ $ $ $ $ $ @+#+$ $ $ $ $ $ $ $ $ $ $ $ $ $ $ $ $ $ $ $ $ $ $ $+              ",
"                ; $ $ $ $ $ $ $ $ $ $ $ $ $ $ $ $ $ $ $ $ $ $ | ].$ $ $ $ $ $ $ $ $ $ $ $ $ $ $ $ $ $ $ $ $ $ &                 ",
"                  @ $ $ $ $ $ $ $ $ $ $ $ $ $ $ $ $ $ $ $ $ $ | D.$ $ $ $ $ $ $ $ $ $ $ $ $ $ $ $ $ $ $ $ $ $                   ",
"                    ; $ $ $ $ $ $ $ $ $ $ $ $ $ $ $ $ $ $ $ + | | $ $ $ $ $ $ $ $ $ $ $ $ $ $ $ $ $ $ $ $ &                     ",
"                      %+$ $ $ $ $ $ $ $ $ $ $ $ $ $ $ $ $ $ &+| | $ $ $ $ $ $ $ $ $ $ $ $ $ $ $ $ $ $ $ *+                      ",
"                          # $ $ $ $ $ $ $ $ $ $ $ $ $ $ $ $ =+| | # $ $ $ $ $ $ $ $ $ $ $ $ $ $ $ $ ;                           ",
"                            - $ $ $ $ $ $ $ $ $ $ $ $ $ $ $ -+;+;+; $ $ $ $ $ $ $ $ $ $ $ $ $ $ $ +                             ",
"                                *.$ $ $ $ $ $ $ $ $ $ $ $ $ $ $ $ $ $ $ $ $ $ $ $ $ $ $ $ $ $ !                                 ",
"                                  A ; $ $ $ $ $ $ $ $ $ $ $ $ $ $ $ $ $ $ $ $ $ $ $ $ $ $ ;                                     ",
"                                        , $ $ $ $ $ $ $ $ $ $ $ $ $ $ $ $ $ $ $ $ $ $ A                                         ",
"                                            6 < $ $ $ $ $ $ $ $ $ $ $ $ $ $ $ P +                                               ",
"                                                    A >+$ , ,+* > ,+& w [ %                                                     "};
