/* XPM */
static char * bitcoin16_xpm[] = {
"16 16 59 1",
" 	c None",
".	c #BE262C",
"+	c #BF262C",
"@	c #C0272D",
"#	c #BF272C",
"$	c #C1272D",
"%	c #C86264",
"&	c #C76062",
"*	c #BD262C",
"=	c #E6C9CA",
"-	c #E5C8C8",
";	c #D59A9B",
">	c #E3C4C4",
",	c #FDFCFC",
"'	c #E3C3C4",
")	c #D49999",
"!	c #CC797A",
"~	c #FFFFFF",
"{	c #CB7576",
"]	c #C23B3F",
"^	c #DFB9B9",
"/	c #C24649",
"(	c #FCFAFA",
"_	c #C44A4D",
":	c #DDB6B7",
"<	c #BA252B",
"[	c #EBD5D5",
"}	c #EDDADA",
"|	c #F9F4F4",
"1	c #F8F2F2",
"2	c #EEDDDD",
"3	c #F9F8F8",
"4	c #FDFDFD",
"5	c #DCB0B1",
"6	c #C13236",
"7	c #EAD4D4",
"8	c #C12A30",
"9	c #DFB7B7",
"0	c #FEFEFE",
"a	c #D39394",
"b	c #FEFDFD",
"c	c #DBAAAA",
"d	c #D79B9C",
"e	c #DAAAAA",
"f	c #C97071",
"g	c #F2E6E6",
"h	c #E8CFCF",
"i	c #E5C9CA",
"j	c #E4C7C8",
"k	c #E9D0D1",
"l	c #F3E7E7",
"m	c #C8696B",
"n	c #CD7C7E",
"o	c #CD797B",
"p	c #BF272D",
"q	c #D18B8C",
"r	c #CE8384",
"s	c #CD7A7C",
"t	c #CC7475",
"     .+@@#.     ",
"   .$$$%&$$$.   ",
"  *$$$$=-$$$$+  ",
" *$$$;>,,')$$$* ",
" $$$$!~~~~{$$$$ ",
".$!]^/,~~(_:$$$<",
"#$[,~}|~~12~34~~",
"@$5~~~~~~~~~~~~~",
"@67~~~~~~~~~~~~~",
"#$890~~~~~~~~~~~",
".$$$a~~~~~bcddde",
" $$$fghijklm$$$ ",
" .$$$$$no$$$$$. ",
"  p$$$$qr$$$$@  ",
"   .$$$st$$$.   ",
"     .+.++.     "};
